D:\school\WTK\thesis\model\3dpredictsim\Results\debug_batch\Pog_s1_tmt_bCst_d00_k1000_ig24_act_TTC_GRF.mot
nRows=20
nColumns=19

name D:\school\WTK\thesis\model\3dpredictsim\Results\debug_batch\Pog_s1_tmt_bCst_d00_k1000_ig24_act_TTC_GRF.mot
datacolumns 19
datarows 20
range 0.0000000000 0.2455085025
endheader
time 	ground_force_vx	ground_force_vy	ground_force_vz	ground_force_px	ground_force_py	ground_force_pz	1_ground_force_vx	1_ground_force_vy	1_ground_force_vz	1_ground_force_px	1_ground_force_py	1_ground_force_pz	ground_torque_x	ground_torque_y	ground_torque_z	1_ground_torque_x	1_ground_torque_y	1_ground_torque_z
        0.0000000000	      -29.9821857804	       23.9673597465	        7.4461796201	        0.2214593433	        0.0000000000	        0.0505122485	      114.8549975764	      435.9622758116	       -0.7214180834	       -0.3658060210	        0.0000000000	       -0.0354151244	        0.0000000000	        0.0000000000	        0.0000000000	        0.0000000000	        0.0000000000	        0.0000000000	
        0.0129215001	     -109.5617928000	      112.7184567422	       39.1307904951	        0.2292676142	        0.0000000000	        0.0486507011	       77.7790001992	      332.8982288643	       -6.0515563686	       -0.3578878173	        0.0000000000	       -0.0324380362	        0.0000000000	        0.0000000000	        0.0000000000	        0.0000000000	        0.0000000000	        0.0000000000	
        0.0258430003	      -65.1068493509	      325.0270582099	       11.4612953818	        0.2344954138	        0.0000000000	        0.0468032076	       40.4578828452	      216.2090402847	      -13.3246130701	       -0.3433324443	        0.0000000000	       -0.0266301649	        0.0000000000	        0.0000000000	        0.0000000000	        0.0000000000	        0.0000000000	        0.0000000000	
        0.0387645004	      -73.9803076012	      551.9448220119	       -7.4989716618	        0.2372470230	        0.0000000000	        0.0466280060	       25.0516243709	      166.6911918779	      -13.5781174037	       -0.3377998863	        0.0000000000	       -0.0240646686	        0.0000000000	        0.0000000000	        0.0000000000	        0.0000000000	        0.0000000000	        0.0000000000	
        0.0516860005	     -125.9720705617	      761.4429268757	      -15.3049331381	        0.2452817551	        0.0000000000	        0.0483933919	       20.1106664460	      122.5108101674	      -16.6238502772	       -0.3373570942	        0.0000000000	       -0.0243899199	        0.0000000000	        0.0000000000	        0.0000000000	        0.0000000000	        0.0000000000	        0.0000000000	
        0.0646075007	     -163.2653998821	      895.1587285464	      -20.1813385302	        0.2540111150	        0.0000000000	        0.0504260042	        7.5275542385	       67.9054103526	      -15.4100748010	       -0.3372778303	        0.0000000000	       -0.0247308992	        0.0000000000	        0.0000000000	        0.0000000000	        0.0000000000	        0.0000000000	        0.0000000000	
        0.0775290008	     -167.7577926299	      912.1398350728	      -20.1380450875	        0.2596511705	        0.0000000000	        0.0515737832	       -6.3806119341	       12.2203602069	       -3.4230754948	       -0.3403737619	        0.0000000000	       -0.0243411360	        0.0000000000	        0.0000000000	        0.0000000000	        0.0000000000	        0.0000000000	        0.0000000000	
        0.0904505009	     -150.7904934809	      871.7820844123	      -19.0760448706	        0.2636709069	        0.0000000000	        0.0522307062	        0.0181144854	       -0.0150939355	       -0.0009040939	        0.0000000000	        0.0000000000	        0.0000000000	        0.0000000000	        0.0000000000	        0.0000000000	        0.0000000000	        0.0000000000	        0.0000000000	
        0.1033720010	     -129.9739321467	      810.5682298904	      -17.8993870320	        0.2672512734	        0.0000000000	        0.0525996315	        0.2001797992	       -0.1417091837	       -0.0145724740	        0.0000000000	        0.0000000000	        0.0000000000	        0.0000000000	        0.0000000000	        0.0000000000	        0.0000000000	        0.0000000000	        0.0000000000	
        0.1162935012	     -114.7706441815	      759.9828911844	      -16.7584152293	        0.2709635675	        0.0000000000	        0.0527179799	       -1.0192274151	        0.6328350920	        0.0863674284	        0.0000000000	        0.0000000000	        0.0000000000	        0.0000000000	        0.0000000000	        0.0000000000	        0.0000000000	        0.0000000000	        0.0000000000	
        0.1292150013	     -100.9214830340	      723.5554906716	      -16.6665990869	        0.2748323994	        0.0000000000	        0.0526808136	       -1.1613294085	        0.6565745397	        0.1005881590	        0.0000000000	        0.0000000000	        0.0000000000	        0.0000000000	        0.0000000000	        0.0000000000	        0.0000000000	        0.0000000000	        0.0000000000	
        0.1421365014	      -89.3314081928	      696.3606692898	      -16.7684128412	        0.2793368013	        0.0000000000	        0.0524915277	       -0.7943367735	        0.4180115797	        0.0683669002	        0.0000000000	        0.0000000000	        0.0000000000	        0.0000000000	        0.0000000000	        0.0000000000	        0.0000000000	        0.0000000000	        0.0000000000	
        0.1550580016	      -78.6638421052	      672.4566858737	      -17.6988093497	        0.2840870409	        0.0000000000	        0.0522102821	       -0.4934760961	        0.2473804642	        0.0402461252	        0.0000000000	        0.0000000000	        0.0000000000	        0.0000000000	        0.0000000000	        0.0000000000	        0.0000000000	        0.0000000000	        0.0000000000	
        0.1679795017	      -68.4153785755	      649.4568332942	      -18.4555307289	        0.2886149208	        0.0000000000	        0.0520012114	       -0.3382396841	        0.1627856700	        0.0264203661	        0.0000000000	        0.0000000000	        0.0000000000	        0.0000000000	        0.0000000000	        0.0000000000	        0.0000000000	        0.0000000000	        0.0000000000	
        0.1809010018	      -58.9274298338	      629.1988663788	      -18.7557206008	        0.2928794220	        0.0000000000	        0.0518905513	       -0.2730900122	        0.1270555885	        0.0206443349	        0.0000000000	        0.0000000000	        0.0000000000	        0.0000000000	        0.0000000000	        0.0000000000	        0.0000000000	        0.0000000000	        0.0000000000	
        0.1938225020	      -50.3248608921	      611.8622596607	      -19.1379498904	        0.2969929461	        0.0000000000	        0.0518468845	       -0.2579015178	        0.1166580677	        0.0188465733	        0.0000000000	        0.0000000000	        0.0000000000	        0.0000000000	        0.0000000000	        0.0000000000	        0.0000000000	        0.0000000000	        0.0000000000	
        0.2067440021	      -43.0481477047	      598.0169660126	      -19.2909384061	        0.3010554414	        0.0000000000	        0.0518428575	       -0.2784181686	        0.1229529900	        0.0196425655	        0.0000000000	        0.0000000000	        0.0000000000	        0.0000000000	        0.0000000000	        0.0000000000	        0.0000000000	        0.0000000000	        0.0000000000	
        0.2196655022	      -36.8690711429	      588.4197746008	      -19.1160056909	        0.3051786429	        0.0000000000	        0.0518497686	       -0.3370112763	        0.1456057112	        0.0230021225	        0.0000000000	        0.0000000000	        0.0000000000	        0.0000000000	        0.0000000000	        0.0000000000	        0.0000000000	        0.0000000000	        0.0000000000	
        0.2325870023	      -31.7742148567	      582.1965113809	      -18.6961289162	        0.3093908057	        0.0000000000	        0.0518437252	       -0.4462217568	        0.1888243877	        0.0293193506	        0.0000000000	        0.0000000000	        0.0000000000	        0.0000000000	        0.0000000000	        0.0000000000	        0.0000000000	        0.0000000000	        0.0000000000	
        0.2455085025	      -27.3791177183	      578.0861774855	      -18.3380410614	        0.3136000472	        0.0000000000	        0.0518161991	       -0.6204334423	        0.2575577398	        0.0388571826	        0.0000000000	        0.0000000000	        0.0000000000	        0.0000000000	        0.0000000000	        0.0000000000	        0.0000000000	        0.0000000000	        0.0000000000	
